<!-- PLACEHOLDER doodle — to be replaced by Dee Dee's hand-drawn canonical art. Not canon. -->
<svg xmlns="http://www.w3.org/2000/svg" viewBox="0 0 140 140" width="140" height="140" role="img" aria-label="St. Good Idea Fairy (placeholder)">
  <g fill="none" stroke="#333" stroke-width="2.2" stroke-linecap="round" stroke-linejoin="round">
    <!-- lightbulb -->
    <path d="M70 30 a24 24 0 0 1 16 42 c-4 4 -5 8 -5 12 H59 c0 -4 -1 -8 -5 -12 a24 24 0 0 1 16 -42 Z"/>
    <!-- base -->
    <path d="M59 84 H81 M61 90 H79 M64 96 H76"/>
    <!-- wings -->
    <path d="M46 58 c-16 -10 -24 -2 -22 8 c8 6 18 4 22 -2"/>
    <path d="M94 58 c16 -10 24 -2 22 8 c-8 6 -18 4 -22 -2"/>
    <!-- sparkles -->
    <path d="M104 30 l2 6 l6 2 l-6 2 l-2 6 l-2 -6 l-6 -2 l6 -2 Z"/>
    <path d="M30 96 l1.5 4 l4 1.5 l-4 1.5 l-1.5 4 l-1.5 -4 l-4 -1.5 l4 -1.5 Z"/>
  </g>
</svg>
